<svg width="98" height="97" xmlns="http://www.w3.org/2000/svg" xmlns:xlink="http://www.w3.org/1999/xlink" xml:space="preserve" overflow="hidden"><g transform="translate(-954 -97)"><g><g><g><g><path d="M1002.98 108C982.009 107.999 965.005 125.003 965.004 145.979 965.003 166.955 982.007 183.959 1002.98 183.96 1023.96 183.961 1040.96 166.957 1040.96 145.981 1040.96 145.98 1040.96 145.978 1040.96 145.977 1040.97 125.011 1023.98 108.008 1003.02 108 1003.01 108 1002.99 108 1002.98 108ZM1019.96 158.169 1015.17 162.95 1002.98 150.759 990.8 162.948 986.019 158.167 998.2 145.977 986.014 133.788 990.8 129.007 1002.98 141.2 1015.17 129.007 1019.96 133.788 1007.77 145.977Z" fill="#B10010" fill-rule="nonzero" fill-opacity="1"/></g></g></g></g></g></svg>