<svg width="97" height="97" xmlns="http://www.w3.org/2000/svg" xmlns:xlink="http://www.w3.org/1999/xlink" xml:space="preserve" overflow="hidden"><g transform="translate(-300 -97)"><g><g><g><g><path d="M348.979 108C328.004 108 311 125.004 311 145.979 311 166.954 328.004 183.958 348.979 183.958 369.954 183.958 386.958 166.954 386.958 145.979 386.958 145.978 386.958 145.977 386.958 145.976 386.965 125.01 369.974 108.007 349.008 108 348.998 108 348.989 108 348.979 108ZM358.179 147.793C352.646 153.316 347.079 158.889 341.479 164.51 336.72 159.729 331.95 154.959 327.169 150.2L331.95 145.419 341.479 154.948C346.105 150.255 350.705 145.596 355.279 140.969 359.85 136.343 362.379 133.86 367.12 129.278 367.253 129.145 367.396 129.013 367.551 128.878 367.701 128.751 367.836 128.606 367.951 128.446L372.799 133.227C367.168 138.827 363.712 142.267 358.178 147.79Z" fill="#408335" fill-rule="nonzero" fill-opacity="1"/></g></g></g></g></g></svg>