<svg width="97" height="96" xmlns="http://www.w3.org/2000/svg" xmlns:xlink="http://www.w3.org/1999/xlink" xml:space="preserve" overflow="hidden"><g transform="translate(-673 -264)"><g><g><g><g><path d="M764.6 344 725.5 276C724 273.3 720.1 273.3 718.6 276L679.4 344C677.9 346.7 679.8 350 682.9 350L722 350 761.1 350C764.2 350 766.1 346.7 764.6 344ZM719 292 725 292 725 327 719 327 719 292ZM722 341C719.2 341 717 338.8 717 336 717 333.2 719.2 331 722 331 724.8 331 727 333.2 727 336 727 338.8 724.8 341 722 341Z" fill="#FF9B00" fill-rule="nonzero" fill-opacity="1"/></g></g></g></g></g></svg>